<svg width="51" height="36" viewBox="0 0 51 36" fill="none" xmlns="http://www.w3.org/2000/svg">
<path d="M0.463375 18.2C0.463375 15.32 0.767375 12.808 1.37538 10.664C2.01538 8.488 2.87938 6.68 3.96738 5.24C5.08738 3.768 6.39938 2.664 7.90338 1.928C9.43938 1.192 11.1034 0.823999 12.8954 0.823999C16.7354 0.823999 19.7754 2.28 22.0154 5.192C24.2554 8.072 25.3754 12.408 25.3754 18.2C25.3754 21.08 25.0554 23.608 24.4154 25.784C23.8074 27.928 22.9274 29.736 21.7754 31.208C20.6554 32.648 19.3114 33.736 17.7434 34.472C16.1754 35.208 14.4634 35.576 12.6074 35.576C10.6554 35.576 8.92738 35.192 7.42338 34.424C5.91938 33.624 4.63938 32.488 3.58338 31.016C2.55938 29.512 1.77538 27.688 1.23138 25.544C0.719375 23.4 0.463375 20.952 0.463375 18.2ZM7.66338 18.2C7.66338 20.504 7.72738 22.568 7.85538 24.392C8.01538 26.216 8.28738 27.768 8.67138 29.048C9.05538 30.296 9.55138 31.256 10.1594 31.928C10.7994 32.6 11.5994 32.936 12.5594 32.936C13.6794 32.936 14.5914 32.664 15.2954 32.12C16.0314 31.576 16.6074 30.712 17.0234 29.528C17.4714 28.344 17.7754 26.824 17.9354 24.968C18.0954 23.112 18.1754 20.856 18.1754 18.2C18.1754 15.896 18.1114 13.832 17.9834 12.008C17.8554 10.184 17.5994 8.648 17.2154 7.4C16.8634 6.12 16.3354 5.144 15.6314 4.472C14.9594 3.8 14.0474 3.464 12.8954 3.464C11.8714 3.464 11.0234 3.736 10.3514 4.28C9.67938 4.824 9.13538 5.688 8.71938 6.872C8.33538 8.056 8.06338 9.592 7.90338 11.48C7.74338 13.336 7.66338 15.576 7.66338 18.2ZM33.268 12.056H31.636C31.444 11.576 31.22 11.016 30.964 10.376C30.74 9.736 30.5 9.064 30.244 8.36C29.988 7.656 29.748 6.968 29.524 6.296C29.3 5.592 29.124 4.952 28.996 4.376C30.116 3.416 31.54 2.584 33.268 1.88C35.028 1.176 37.156 0.823999 39.652 0.823999C41.412 0.823999 42.932 1.048 44.212 1.496C45.492 1.944 46.548 2.568 47.38 3.368C48.244 4.168 48.868 5.096 49.252 6.152C49.668 7.208 49.876 8.344 49.876 9.56C49.876 11.512 49.428 13.368 48.532 15.128C47.636 16.856 46.532 18.488 45.22 20.024C43.908 21.528 42.5 22.936 40.996 24.248C39.492 25.528 38.132 26.696 36.916 27.752L34.42 29.432V29.624L37.348 29.336H45.604L47.956 23.96H49.588C49.684 24.728 49.78 25.624 49.876 26.648C50.004 27.672 50.116 28.712 50.212 29.768C50.308 30.792 50.388 31.784 50.452 32.744C50.516 33.672 50.548 34.424 50.548 35H28.564V31.928C29.396 31.192 30.34 30.344 31.396 29.384C32.452 28.392 33.524 27.32 34.612 26.168C35.7 24.984 36.772 23.736 37.828 22.424C38.884 21.112 39.828 19.784 40.66 18.44C41.492 17.064 42.148 15.672 42.628 14.264C43.14 12.856 43.396 11.48 43.396 10.136C43.396 8.376 42.916 6.952 41.956 5.864C41.028 4.744 39.7 4.184 37.972 4.184C37.428 4.184 36.932 4.216 36.484 4.28C36.068 4.344 35.588 4.456 35.044 4.616L33.268 12.056Z" fill="#2F80ED"/>
</svg>
