<svg width="52" height="36" viewBox="0 0 52 36" fill="none" xmlns="http://www.w3.org/2000/svg">
<path d="M0.463375 18.2C0.463375 15.32 0.767375 12.808 1.37538 10.664C2.01538 8.488 2.87938 6.68 3.96738 5.24C5.08738 3.768 6.39938 2.664 7.90338 1.928C9.43938 1.192 11.1034 0.823999 12.8954 0.823999C16.7354 0.823999 19.7754 2.28 22.0154 5.192C24.2554 8.072 25.3754 12.408 25.3754 18.2C25.3754 21.08 25.0554 23.608 24.4154 25.784C23.8074 27.928 22.9274 29.736 21.7754 31.208C20.6554 32.648 19.3114 33.736 17.7434 34.472C16.1754 35.208 14.4634 35.576 12.6074 35.576C10.6554 35.576 8.92738 35.192 7.42338 34.424C5.91938 33.624 4.63938 32.488 3.58338 31.016C2.55938 29.512 1.77538 27.688 1.23138 25.544C0.719375 23.4 0.463375 20.952 0.463375 18.2ZM7.66338 18.2C7.66338 20.504 7.72738 22.568 7.85538 24.392C8.01538 26.216 8.28738 27.768 8.67138 29.048C9.05538 30.296 9.55138 31.256 10.1594 31.928C10.7994 32.6 11.5994 32.936 12.5594 32.936C13.6794 32.936 14.5914 32.664 15.2954 32.12C16.0314 31.576 16.6074 30.712 17.0234 29.528C17.4714 28.344 17.7754 26.824 17.9354 24.968C18.0954 23.112 18.1754 20.856 18.1754 18.2C18.1754 15.896 18.1114 13.832 17.9834 12.008C17.8554 10.184 17.5994 8.648 17.2154 7.4C16.8634 6.12 16.3354 5.144 15.6314 4.472C14.9594 3.8 14.0474 3.464 12.8954 3.464C11.8714 3.464 11.0234 3.736 10.3514 4.28C9.67938 4.824 9.13538 5.688 8.71938 6.872C8.33538 8.056 8.06338 9.592 7.90338 11.48C7.74338 13.336 7.66338 15.576 7.66338 18.2ZM38.836 32.456C39.572 32.456 40.292 32.296 40.996 31.976C41.7 31.624 42.324 31.144 42.868 30.536C43.444 29.928 43.892 29.208 44.212 28.376C44.564 27.544 44.74 26.648 44.74 25.688C44.74 24.6 44.548 23.672 44.164 22.904C43.812 22.104 43.332 21.448 42.724 20.936C42.148 20.424 41.476 20.056 40.708 19.832C39.94 19.576 39.172 19.448 38.404 19.448H35.62V17.528L42.82 8.12L44.452 6.44V6.248L41.86 6.536H34.612L32.74 11.432H31.108C30.948 10.76 30.772 9.96 30.58 9.032C30.42 8.104 30.26 7.176 30.1 6.248C29.972 5.32 29.86 4.424 29.764 3.56C29.7 2.696 29.668 1.976 29.668 1.4H50.596V3.752L42.292 13.88L40.228 15.992V16.088L41.86 15.752C43.364 15.816 44.708 16.104 45.892 16.616C47.108 17.096 48.116 17.768 48.916 18.632C49.748 19.464 50.372 20.44 50.788 21.56C51.236 22.68 51.46 23.912 51.46 25.256C51.46 26.856 51.108 28.296 50.404 29.576C49.732 30.856 48.82 31.944 47.668 32.84C46.516 33.736 45.172 34.424 43.636 34.904C42.1 35.352 40.484 35.576 38.788 35.576C37.828 35.576 36.868 35.496 35.908 35.336C34.948 35.208 34.036 35.016 33.172 34.76C32.34 34.504 31.572 34.2 30.868 33.848C30.196 33.496 29.62 33.112 29.14 32.696L30.916 27.704H32.308C32.5 27.928 32.756 28.232 33.076 28.616C33.428 28.968 33.78 29.352 34.132 29.768C34.516 30.184 34.884 30.6 35.236 31.016C35.588 31.432 35.892 31.784 36.148 32.072C36.468 32.136 36.82 32.216 37.204 32.312C37.62 32.408 38.164 32.456 38.836 32.456Z" fill="#2F80ED"/>
</svg>
