<svg width="51" height="38" viewBox="0 0 51 38" fill="none" xmlns="http://www.w3.org/2000/svg">
<path d="M0.463375 20.2C0.463375 17.32 0.767375 14.808 1.37538 12.664C2.01538 10.488 2.87938 8.68 3.96738 7.24C5.08738 5.768 6.39938 4.664 7.90338 3.928C9.43938 3.192 11.1034 2.824 12.8954 2.824C16.7354 2.824 19.7754 4.28 22.0154 7.192C24.2554 10.072 25.3754 14.408 25.3754 20.2C25.3754 23.08 25.0554 25.608 24.4154 27.784C23.8074 29.928 22.9274 31.736 21.7754 33.208C20.6554 34.648 19.3114 35.736 17.7434 36.472C16.1754 37.208 14.4634 37.576 12.6074 37.576C10.6554 37.576 8.92738 37.192 7.42338 36.424C5.91938 35.624 4.63938 34.488 3.58338 33.016C2.55938 31.512 1.77538 29.688 1.23138 27.544C0.719375 25.4 0.463375 22.952 0.463375 20.2ZM7.66338 20.2C7.66338 22.504 7.72738 24.568 7.85538 26.392C8.01538 28.216 8.28738 29.768 8.67138 31.048C9.05538 32.296 9.55138 33.256 10.1594 33.928C10.7994 34.6 11.5994 34.936 12.5594 34.936C13.6794 34.936 14.5914 34.664 15.2954 34.12C16.0314 33.576 16.6074 32.712 17.0234 31.528C17.4714 30.344 17.7754 28.824 17.9354 26.968C18.0954 25.112 18.1754 22.856 18.1754 20.2C18.1754 17.896 18.1114 15.832 17.9834 14.008C17.8554 12.184 17.5994 10.648 17.2154 9.4C16.8634 8.12 16.3354 7.144 15.6314 6.472C14.9594 5.8 14.0474 5.464 12.8954 5.464C11.8714 5.464 11.0234 5.736 10.3514 6.28C9.67938 6.824 9.13538 7.688 8.71938 8.872C8.33538 10.056 8.06338 11.592 7.90338 13.48C7.74338 15.336 7.66338 17.576 7.66338 20.2ZM48.34 0.759997H49.972C49.972 1.24 49.956 1.864 49.924 2.632C49.892 3.4 49.828 4.184 49.732 4.984C49.636 5.784 49.524 6.552 49.396 7.288C49.268 7.992 49.14 8.536 49.012 8.92H35.86L34.996 15.784H38.98C40.708 15.784 42.276 16.024 43.684 16.504C45.092 16.952 46.292 17.624 47.284 18.52C48.276 19.384 49.044 20.456 49.588 21.736C50.132 22.984 50.404 24.424 50.404 26.056C50.404 27.88 50.052 29.512 49.348 30.952C48.676 32.36 47.748 33.56 46.564 34.552C45.38 35.512 43.988 36.264 42.388 36.808C40.788 37.32 39.06 37.576 37.204 37.576C35.348 37.576 33.652 37.288 32.116 36.712C30.58 36.104 29.348 35.432 28.42 34.696L30.436 29.944H31.828C32.052 30.168 32.308 30.456 32.596 30.808C32.884 31.16 33.188 31.528 33.508 31.912C33.828 32.296 34.132 32.68 34.42 33.064C34.708 33.448 34.964 33.784 35.188 34.072C35.508 34.2 35.796 34.296 36.052 34.36C36.34 34.424 36.708 34.456 37.156 34.456C38.116 34.456 39.012 34.296 39.844 33.976C40.676 33.624 41.38 33.144 41.956 32.536C42.564 31.928 43.044 31.208 43.396 30.376C43.748 29.512 43.924 28.568 43.924 27.544C43.924 26.424 43.7 25.448 43.252 24.616C42.836 23.752 42.26 23.048 41.524 22.504C40.788 21.96 39.924 21.56 38.932 21.304C37.94 21.016 36.9 20.872 35.812 20.872L31.636 20.92L33.556 3.4H46.084L48.34 0.759997Z" fill="#2F80ED"/>
</svg>
