<svg width="53" height="36" viewBox="0 0 53 36" fill="none" xmlns="http://www.w3.org/2000/svg">
<path d="M0.463375 18.2C0.463375 15.32 0.767375 12.808 1.37538 10.664C2.01538 8.488 2.87938 6.68 3.96738 5.24C5.08738 3.768 6.39938 2.664 7.90338 1.928C9.43938 1.192 11.1034 0.823999 12.8954 0.823999C16.7354 0.823999 19.7754 2.28 22.0154 5.192C24.2554 8.072 25.3754 12.408 25.3754 18.2C25.3754 21.08 25.0554 23.608 24.4154 25.784C23.8074 27.928 22.9274 29.736 21.7754 31.208C20.6554 32.648 19.3114 33.736 17.7434 34.472C16.1754 35.208 14.4634 35.576 12.6074 35.576C10.6554 35.576 8.92738 35.192 7.42338 34.424C5.91938 33.624 4.63938 32.488 3.58338 31.016C2.55938 29.512 1.77538 27.688 1.23138 25.544C0.719375 23.4 0.463375 20.952 0.463375 18.2ZM7.66338 18.2C7.66338 20.504 7.72738 22.568 7.85538 24.392C8.01538 26.216 8.28738 27.768 8.67138 29.048C9.05538 30.296 9.55138 31.256 10.1594 31.928C10.7994 32.6 11.5994 32.936 12.5594 32.936C13.6794 32.936 14.5914 32.664 15.2954 32.12C16.0314 31.576 16.6074 30.712 17.0234 29.528C17.4714 28.344 17.7754 26.824 17.9354 24.968C18.0954 23.112 18.1754 20.856 18.1754 18.2C18.1754 15.896 18.1114 13.832 17.9834 12.008C17.8554 10.184 17.5994 8.648 17.2154 7.4C16.8634 6.12 16.3354 5.144 15.6314 4.472C14.9594 3.8 14.0474 3.464 12.8954 3.464C11.8714 3.464 11.0234 3.736 10.3514 4.28C9.67938 4.824 9.13538 5.688 8.71938 6.872C8.33538 8.056 8.06338 9.592 7.90338 11.48C7.74338 13.336 7.66338 15.576 7.66338 18.2ZM52.228 24.68C52.228 26.344 51.908 27.848 51.268 29.192C50.66 30.536 49.828 31.688 48.772 32.648C47.716 33.576 46.468 34.296 45.028 34.808C43.62 35.32 42.116 35.576 40.516 35.576C38.532 35.576 36.772 35.272 35.236 34.664C33.732 34.024 32.468 33.144 31.444 32.024C30.42 30.904 29.636 29.576 29.092 28.04C28.58 26.504 28.324 24.824 28.324 23C28.324 19.992 28.852 17.24 29.908 14.744C30.964 12.248 32.388 10.04 34.18 8.12C35.972 6.2 38.052 4.6 40.42 3.32C42.82 2.04 45.364 1.112 48.052 0.535997L48.772 2.6C47.044 3.144 45.444 3.88 43.972 4.808C42.5 5.736 41.188 6.872 40.036 8.216C38.916 9.528 37.988 11.032 37.252 12.728C36.548 14.392 36.1 16.232 35.908 18.248C36.164 17.832 36.484 17.432 36.868 17.048C37.284 16.632 37.78 16.264 38.356 15.944C38.932 15.592 39.588 15.32 40.324 15.128C41.092 14.904 41.956 14.792 42.916 14.792C44.228 14.792 45.444 15 46.564 15.416C47.716 15.832 48.708 16.456 49.54 17.288C50.372 18.12 51.028 19.16 51.508 20.408C51.988 21.624 52.228 23.048 52.228 24.68ZM45.028 25.256C45.028 20.52 43.444 18.152 40.276 18.152C39.188 18.152 38.26 18.44 37.492 19.016C36.724 19.56 36.164 20.2 35.812 20.936C35.716 21.384 35.636 21.912 35.572 22.52C35.54 23.096 35.524 23.656 35.524 24.2C35.524 25.288 35.62 26.344 35.812 27.368C36.004 28.36 36.308 29.256 36.724 30.056C37.14 30.824 37.668 31.448 38.308 31.928C38.98 32.408 39.78 32.648 40.708 32.648C41.508 32.648 42.18 32.456 42.724 32.072C43.268 31.656 43.7 31.112 44.02 30.44C44.372 29.768 44.628 28.984 44.788 28.088C44.948 27.192 45.028 26.248 45.028 25.256Z" fill="#2F80ED"/>
</svg>
