<svg width="52" height="36" viewBox="0 0 52 36" fill="none" xmlns="http://www.w3.org/2000/svg">
<path d="M0.463375 18.2C0.463375 15.32 0.767375 12.808 1.37538 10.664C2.01538 8.488 2.87938 6.68 3.96738 5.24C5.08738 3.768 6.39938 2.664 7.90338 1.928C9.43938 1.192 11.1034 0.823999 12.8954 0.823999C16.7354 0.823999 19.7754 2.28 22.0154 5.192C24.2554 8.072 25.3754 12.408 25.3754 18.2C25.3754 21.08 25.0554 23.608 24.4154 25.784C23.8074 27.928 22.9274 29.736 21.7754 31.208C20.6554 32.648 19.3114 33.736 17.7434 34.472C16.1754 35.208 14.4634 35.576 12.6074 35.576C10.6554 35.576 8.92738 35.192 7.42338 34.424C5.91938 33.624 4.63938 32.488 3.58338 31.016C2.55938 29.512 1.77538 27.688 1.23138 25.544C0.719375 23.4 0.463375 20.952 0.463375 18.2ZM7.66338 18.2C7.66338 20.504 7.72738 22.568 7.85538 24.392C8.01538 26.216 8.28738 27.768 8.67138 29.048C9.05538 30.296 9.55138 31.256 10.1594 31.928C10.7994 32.6 11.5994 32.936 12.5594 32.936C13.6794 32.936 14.5914 32.664 15.2954 32.12C16.0314 31.576 16.6074 30.712 17.0234 29.528C17.4714 28.344 17.7754 26.824 17.9354 24.968C18.0954 23.112 18.1754 20.856 18.1754 18.2C18.1754 15.896 18.1114 13.832 17.9834 12.008C17.8554 10.184 17.5994 8.648 17.2154 7.4C16.8634 6.12 16.3354 5.144 15.6314 4.472C14.9594 3.8 14.0474 3.464 12.8954 3.464C11.8714 3.464 11.0234 3.736 10.3514 4.28C9.67938 4.824 9.13538 5.688 8.71938 6.872C8.33538 8.056 8.06338 9.592 7.90338 11.48C7.74338 13.336 7.66338 15.576 7.66338 18.2ZM32.116 11.912H30.484C30.324 11.24 30.164 10.424 30.004 9.464C29.844 8.472 29.684 7.48 29.524 6.488C29.396 5.496 29.284 4.552 29.188 3.656C29.092 2.728 29.044 1.976 29.044 1.4H51.508V3.656C49.78 6.344 48.324 8.872 47.14 11.24C45.956 13.608 44.964 16.008 44.164 18.44C43.364 20.872 42.692 23.416 42.148 26.072C41.636 28.728 41.188 31.704 40.804 35H33.988C35.14 30.36 36.628 25.944 38.452 21.752C40.276 17.56 42.436 13.336 44.932 9.08L46.708 6.776L44.308 7.016H33.988L32.116 11.912Z" fill="#2F80ED"/>
</svg>
