<svg width="52" height="36" viewBox="0 0 52 36" fill="none" xmlns="http://www.w3.org/2000/svg">
<path d="M0.463375 18.2C0.463375 15.32 0.767375 12.808 1.37538 10.664C2.01538 8.488 2.87938 6.68 3.96738 5.24C5.08738 3.768 6.39938 2.664 7.90338 1.928C9.43938 1.192 11.1034 0.823999 12.8954 0.823999C16.7354 0.823999 19.7754 2.28 22.0154 5.192C24.2554 8.072 25.3754 12.408 25.3754 18.2C25.3754 21.08 25.0554 23.608 24.4154 25.784C23.8074 27.928 22.9274 29.736 21.7754 31.208C20.6554 32.648 19.3114 33.736 17.7434 34.472C16.1754 35.208 14.4634 35.576 12.6074 35.576C10.6554 35.576 8.92738 35.192 7.42338 34.424C5.91938 33.624 4.63938 32.488 3.58338 31.016C2.55938 29.512 1.77538 27.688 1.23138 25.544C0.719375 23.4 0.463375 20.952 0.463375 18.2ZM7.66338 18.2C7.66338 20.504 7.72738 22.568 7.85538 24.392C8.01538 26.216 8.28738 27.768 8.67138 29.048C9.05538 30.296 9.55138 31.256 10.1594 31.928C10.7994 32.6 11.5994 32.936 12.5594 32.936C13.6794 32.936 14.5914 32.664 15.2954 32.12C16.0314 31.576 16.6074 30.712 17.0234 29.528C17.4714 28.344 17.7754 26.824 17.9354 24.968C18.0954 23.112 18.1754 20.856 18.1754 18.2C18.1754 15.896 18.1114 13.832 17.9834 12.008C17.8554 10.184 17.5994 8.648 17.2154 7.4C16.8634 6.12 16.3354 5.144 15.6314 4.472C14.9594 3.8 14.0474 3.464 12.8954 3.464C11.8714 3.464 11.0234 3.736 10.3514 4.28C9.67938 4.824 9.13538 5.688 8.71938 6.872C8.33538 8.056 8.06338 9.592 7.90338 11.48C7.74338 13.336 7.66338 15.576 7.66338 18.2ZM28.18 27.464C28.18 25.224 28.9 23.352 30.34 21.848C31.78 20.312 33.668 19.176 36.004 18.44C34.084 17.352 32.532 16.072 31.348 14.6C30.164 13.096 29.572 11.368 29.572 9.416C29.572 8.168 29.812 7.032 30.292 6.008C30.804 4.952 31.524 4.04 32.452 3.272C33.38 2.504 34.5 1.912 35.812 1.496C37.156 1.048 38.66 0.823999 40.324 0.823999C41.86 0.823999 43.252 1.016 44.5 1.4C45.78 1.784 46.868 2.312 47.764 2.984C48.66 3.656 49.348 4.472 49.828 5.432C50.308 6.392 50.548 7.448 50.548 8.6C50.548 10.52 49.908 12.184 48.628 13.592C47.348 15 45.732 16.008 43.78 16.616C45.156 17.352 46.34 18.088 47.332 18.824C48.356 19.56 49.204 20.328 49.876 21.128C50.548 21.928 51.044 22.776 51.364 23.672C51.716 24.568 51.892 25.544 51.892 26.6C51.892 27.848 51.62 29.016 51.076 30.104C50.564 31.192 49.796 32.152 48.772 32.984C47.78 33.784 46.532 34.424 45.028 34.904C43.556 35.352 41.844 35.576 39.892 35.576C38.1 35.576 36.468 35.368 34.996 34.952C33.556 34.536 32.324 33.976 31.3 33.272C30.308 32.536 29.54 31.672 28.996 30.68C28.452 29.688 28.18 28.616 28.18 27.464ZM45.076 27.992C45.076 26.904 44.868 25.976 44.452 25.208C44.068 24.44 43.54 23.752 42.868 23.144C42.228 22.504 41.46 21.928 40.564 21.416C39.7 20.872 38.788 20.312 37.828 19.736C36.708 20.6 35.94 21.624 35.524 22.808C35.108 23.992 34.9 25.144 34.9 26.264C34.9 27.032 34.996 27.8 35.188 28.568C35.38 29.336 35.684 30.024 36.1 30.632C36.548 31.208 37.108 31.688 37.78 32.072C38.452 32.456 39.284 32.648 40.276 32.648C41.076 32.648 41.764 32.52 42.34 32.264C42.948 32.008 43.444 31.672 43.828 31.256C44.244 30.808 44.548 30.312 44.74 29.768C44.964 29.192 45.076 28.6 45.076 27.992ZM36.1 8.408C36.1 9.944 36.628 11.304 37.684 12.488C38.772 13.64 40.164 14.648 41.86 15.512C42.756 14.68 43.38 13.768 43.732 12.776C44.116 11.752 44.308 10.584 44.308 9.272C44.308 7.416 43.924 6.04 43.156 5.144C42.42 4.216 41.444 3.752 40.228 3.752C38.788 3.752 37.732 4.2 37.06 5.096C36.42 5.992 36.1 7.096 36.1 8.408Z" fill="#2F80ED"/>
</svg>
