<svg width="18" height="18" viewBox="0 0 18 18" fill="none" xmlns="http://www.w3.org/2000/svg">
<path d="M1.23748 0.59253C1.10024 0.605886 0.96972 0.658367 0.861434 0.743734C0.753147 0.829102 0.671649 0.943766 0.626625 1.0741C0.581602 1.20443 0.574946 1.34495 0.607449 1.47895C0.639953 1.61296 0.710249 1.73481 0.809981 1.83003L7.97998 9.00003L0.809981 16.17C0.743007 16.237 0.68988 16.3165 0.653634 16.404C0.617388 16.4915 0.598732 16.5853 0.598732 16.68C0.598732 16.7747 0.617388 16.8685 0.653634 16.956C0.68988 17.0435 0.743007 17.1231 0.809981 17.19C0.876956 17.257 0.956466 17.3101 1.04397 17.3464C1.13148 17.3826 1.22527 17.4013 1.31998 17.4013C1.4147 17.4013 1.50849 17.3826 1.59599 17.3464C1.6835 17.3101 1.76301 17.257 1.82998 17.19L8.99998 10.02L16.17 17.19C16.237 17.257 16.3165 17.3101 16.404 17.3464C16.4915 17.3826 16.5853 17.4013 16.68 17.4013C16.7747 17.4013 16.8685 17.3826 16.956 17.3464C17.0435 17.3101 17.123 17.257 17.19 17.19C17.257 17.1231 17.3101 17.0435 17.3463 16.956C17.3826 16.8685 17.4012 16.7747 17.4012 16.68C17.4012 16.5853 17.3826 16.4915 17.3463 16.404C17.3101 16.3165 17.257 16.237 17.19 16.17L10.02 9.00003L17.19 1.83003C17.2947 1.72888 17.3662 1.59837 17.3953 1.45572C17.4243 1.31307 17.4094 1.16497 17.3525 1.03096C17.2957 0.896942 17.1995 0.783308 17.0768 0.70504C16.9541 0.626771 16.8105 0.587543 16.665 0.59253C16.478 0.597979 16.3005 0.675984 16.17 0.81003L8.99998 7.98003L1.82998 0.81003C1.76268 0.740973 1.68219 0.686137 1.5933 0.648775C1.5044 0.611413 1.40891 0.592286 1.31248 0.59253C1.2875 0.591227 1.26246 0.591227 1.23748 0.59253Z" fill="#2F80ED"/>
</svg>
